<svg id="Layer_1" data-name="Layer 1" xmlns="http://www.w3.org/2000/svg" xmlns:xlink="http://www.w3.org/1999/xlink" viewBox="0 0 700.55 367.29"><defs><style>.cls-1,.cls-11,.cls-2,.cls-3,.cls-4,.cls-7,.cls-8{fill:none;}.cls-2,.cls-3,.cls-4,.cls-7,.cls-8{stroke:#231f20;}.cls-2,.cls-3,.cls-4,.cls-7{stroke-width:0.5px;}.cls-2{stroke-dasharray:1.5 1;}.cls-3{stroke-dasharray:1.5 1;}.cls-4{stroke-dasharray:1.5 1;}.cls-5{clip-path:url(#clip-path);}.cls-6{fill:#fff;}.cls-9{font-size:18px;font-family:FuturaPT-Book, Futura PT;}.cls-13,.cls-18,.cls-9{fill:#231f20;}.cls-10{letter-spacing:0.02em;}.cls-11{stroke:#d2232a;}.cls-12{fill:#d2232a;}.cls-13,.cls-18{font-size:16px;}.cls-13{font-family:FuturaPT-Light, Futura PT;font-weight:300;}.cls-14{letter-spacing:-0.01em;}.cls-15{letter-spacing:-0.02em;}.cls-16{letter-spacing:-0.03em;}.cls-17{letter-spacing:-0.03em;}.cls-18{font-family:FuturaPT-Heavy, Futura PT;font-weight:800;}.cls-19{letter-spacing:-0.01em;}.cls-20{letter-spacing:-0.01em;}.cls-21{letter-spacing:-0.02em;}.cls-22{letter-spacing:0.03em;}.cls-23{letter-spacing:0em;}.cls-24{letter-spacing:-0.02em;}.cls-25{letter-spacing:0em;}.cls-26{letter-spacing:-0.02em;}.cls-27{letter-spacing:-0.04em;}.cls-28{letter-spacing:-0.01em;}.cls-29{letter-spacing:-0.01em;}.cls-30{letter-spacing:-0.03em;}.cls-31{letter-spacing:-0.01em;}.cls-32{letter-spacing:-0.01em;}.cls-33{fill:#41ad49;}</style><clipPath id="clip-path" transform="translate(-36 -32)"><rect class="cls-1" x="36" y="33.13" width="707.04" height="361.67"/></clipPath></defs><title>katie_affect</title><line class="cls-2" x1="85.09" y1="86.86" x2="457.4" y2="11.11"/><line class="cls-3" x1="301.36" y1="291.11" x2="458.13" y2="291.11"/><line class="cls-4" x1="159.52" y1="157.5" x2="458.13" y2="157.5"/><g class="cls-5"><path class="cls-6" d="M121.36,129.67a9.39,9.39,0,1,0-9.39-9.38,9.38,9.38,0,0,0,9.39,9.38" transform="translate(-36 -32)"/><path class="cls-7" d="M121.36,129.67a9.39,9.39,0,1,0-9.39-9.38A9.38,9.38,0,0,0,121.36,129.67Z" transform="translate(-36 -32)"/><path class="cls-6" d="M337.36,332.24a9.39,9.39,0,1,0-9.39-9.38,9.38,9.38,0,0,0,9.39,9.38" transform="translate(-36 -32)"/><path class="cls-7" d="M337.36,332.24a9.39,9.39,0,1,0-9.39-9.38A9.38,9.38,0,0,0,337.36,332.24Z" transform="translate(-36 -32)"/><path class="cls-6" d="M195.1,198.63a9.39,9.39,0,1,0-9.38-9.39,9.39,9.39,0,0,0,9.38,9.39" transform="translate(-36 -32)"/><path class="cls-7" d="M195.1,198.63a9.39,9.39,0,1,0-9.38-9.39A9.39,9.39,0,0,0,195.1,198.63Z" transform="translate(-36 -32)"/></g><polyline class="cls-8" points="52.84 24 52.84 341.72 370.56 341.72"/><g class="cls-5"><text class="cls-9" transform="translate(0 30.87)">a<tspan class="cls-10" x="9.47" y="0">f</tspan><tspan x="14.15" y="0">fect</tspan></text><text class="cls-9" transform="translate(361.94 362.79)">time</text></g><line class="cls-11" x1="84.07" y1="87.3" x2="300.85" y2="290.78"/><g class="cls-5"><path class="cls-12" d="M336.85,324.78a2,2,0,1,0-2-2,2,2,0,0,0,2,2" transform="translate(-36 -32)"/><text class="cls-13" transform="translate(468 13.34)">“I am going to get t<tspan class="cls-14" x="115.07" y="0">h</tspan><tspan x="121.98" y="0">is new d</tspan><tspan class="cls-15" x="171.53" y="0">e</tspan><tspan x="178.92" y="0">vice t</tspan><tspan class="cls-15" x="209.74" y="0">h</tspan><tspan x="216.47" y="0">at </tspan></text></g><text class="cls-13" transform="translate(468 32.54)">is going to be t<tspan class="cls-16" x="88.69" y="0">h</tspan><tspan x="95.26" y="0">ere with me all t</tspan><tspan class="cls-17" x="189.07" y="0">h</tspan><tspan x="195.64" y="0">e </tspan></text><text class="cls-13" transform="translate(468 51.74)">time and answer all of my questions. </text><text class="cls-18" transform="translate(468 70.94)">E<tspan class="cls-19" x="8.03" y="0">v</tspan><tspan x="16.54" y="0">entually I </tspan><tspan class="cls-20" x="88" y="0">r</tspan><tspan x="93.9" y="0">ealized, no, I must </tspan></text><text class="cls-18" transform="translate(468 90.14)">kn<tspan class="cls-14" x="18.13" y="0">o</tspan><tspan x="27.44" y="0">w </tspan><tspan class="cls-21" x="44.8" y="0">h</tspan><tspan x="53.62" y="0">er ﬁrst and a</tspan><tspan class="cls-22" x="144.59" y="0">f</tspan><tspan class="cls-23" x="150.29" y="0">ter t</tspan><tspan class="cls-24" x="178.48" y="0">h</tspan><tspan x="187.29" y="0">at I </tspan></text><text class="cls-18" transform="translate(468 109.34)">can ask <tspan class="cls-15" x="58.56" y="0">h</tspan><tspan x="67.36" y="0">er questio</tspan><tspan class="cls-14" x="139.04" y="0">n</tspan><tspan class="cls-25" x="147.95" y="0">s.</tspan></text><text class="cls-13" transform="translate(627.33 109.34)">”</text><text class="cls-13" transform="translate(468 296.97)">Did<tspan class="cls-26" x="21.09" y="0">n</tspan><tspan class="cls-27" x="27.86" y="0">’</tspan><tspan class="cls-25" x="30.88" y="0">t download new app. </tspan></text><text class="cls-13" transform="translate(468 159.82)"><tspan class="cls-14">A</tspan><tspan class="cls-25" x="9.22" y="0">ccidentally ordered anot</tspan><tspan class="cls-16" x="156.27" y="0">h</tspan><tspan x="162.84" y="0">er Am</tspan><tspan class="cls-28" x="198.27" y="0">a</tspan><tspan class="cls-29" x="206.38" y="0">z</tspan><tspan x="213.43" y="0">on </tspan></text><text class="cls-13" transform="translate(468 179.02)"><tspan class="cls-30">E</tspan><tspan x="6.94" y="0">c</tspan><tspan class="cls-26" x="14.02" y="0">h</tspan><tspan x="20.78" y="0">o with an Am</tspan><tspan class="cls-31" x="99.29" y="0">a</tspan><tspan class="cls-32" x="107.39" y="0">z</tspan><tspan class="cls-23" x="114.45" y="0">on </tspan><tspan class="cls-16" x="133.56" y="0">E</tspan><tspan class="cls-25" x="140.49" y="0">c</tspan><tspan class="cls-26" x="147.56" y="0">h</tspan><tspan class="cls-23" x="154.33" y="0">o w</tspan><tspan class="cls-28" x="177.13" y="0">h</tspan><tspan x="184.06" y="0">ile </tspan></text><text class="cls-13" transform="translate(468 198.22)">tal<tspan class="cls-14" x="14.3" y="0">k</tspan><tspan x="20.48" y="0">ing to </tspan><tspan class="cls-16" x="57.69" y="0">h</tspan><tspan class="cls-25" x="64.27" y="0">er cousin on t</tspan><tspan class="cls-16" x="143.6" y="0">h</tspan><tspan x="150.17" y="0">e p</tspan><tspan class="cls-26" x="169.88" y="0">h</tspan><tspan class="cls-23" x="176.65" y="0">one. </tspan></text><g class="cls-5"><path class="cls-12" d="M195.1,191.83a2.34,2.34,0,1,0-2.33-2.35,2.35,2.35,0,0,0,2.33,2.35" transform="translate(-36 -32)"/><path class="cls-33" d="M121.36,122.62a2.34,2.34,0,1,0-2.34-2.34,2.33,2.33,0,0,0,2.34,2.34" transform="translate(-36 -32)"/></g></svg>